<svg width="96" height="96" viewBox="0 0 96 96" fill="none" xmlns="http://www.w3.org/2000/svg">
<path d="M48 95C22.0426 95 1 73.9574 1 48C1 22.0426 22.0426 1 48 1C73.9574 1 95 22.0426 95 48C95 73.9574 73.9574 95 48 95Z" fill="#F3F7FF"/>
<mask id="mask0_3904_17822" style="mask-type:luminance" maskUnits="userSpaceOnUse" x="16" y="16" width="64" height="64">
<path d="M80 16H16V80H80V16Z" fill="white"/>
</mask>
<g mask="url(#mask0_3904_17822)">
<path d="M80 16H16V80H80V16Z" fill="white" fill-opacity="0.01"/>
<path d="M24.9766 73.75H71.4928C68.4706 71.943 55.4272 69.2716 55.4272 69.2716L54.5856 62.99C52.4728 64.937 50.2228 66.0346 48.2898 66.0346C46.3268 66.0346 44.0372 64.9024 41.896 62.8984L41.042 69.2716C41.042 69.2716 27.9988 71.943 24.9766 73.75Z" fill="#FFDCCD"/>
<path d="M50.8735 26.9372C52.9695 26.9372 54.8213 27.3028 56.3127 27.9916L56.0711 27.5404C54.8045 25.2068 51.0557 20.2854 43.6577 23.0906C38.7067 24.9678 37.3571 30.0806 37.0667 31.5496L36.9805 32.0588C39.0117 30.1218 41.5945 28.6816 44.5097 27.8738C46.7531 27.2522 48.8941 26.9372 50.8735 26.9372Z" fill="#1F2970"/>
<path d="M61.1429 37.4515C61.1429 37.4515 61.0483 37.2253 60.9731 37.0195C60.0613 36.5927 57.2711 35.4639 53.2679 35.4639C51.5711 35.4639 49.8659 35.6695 48.1719 36.0769C48.1719 36.0769 48.2749 36.1603 48.5489 36.3107L49.1699 36.4659C52.2557 37.2239 54.9859 39.0573 57.2859 41.9151C61.2059 46.7863 60.3163 52.9427 60.2813 53.1711C60.2597 53.2725 60.2371 53.3741 60.2135 53.4757L60.5877 53.2275C60.5877 53.2275 64.8465 49.8323 64.8465 45.2495C64.8465 41.3027 63.5153 39.1401 61.1429 37.4515Z" fill="#27338C"/>
<path d="M61.1448 37.4514C61.1448 37.4514 54.4954 33.8178 45.4278 37.2514C35.9946 40.8236 35.663 49.5508 35.8128 52.3488C35.8186 52.4572 35.8914 53.2274 35.8914 53.2274C35.8914 53.2274 30.941 49.2474 31.7052 42.4638C32.653 34.0514 38.2282 29.2918 44.4286 27.574C50.852 25.7942 56.2678 26.574 58.9084 29.4626C62.9036 33.8328 61.1448 37.4514 61.1448 37.4514Z" fill="#27338C"/>
<path d="M54.6848 63.717L54.5874 62.99C52.4746 64.937 50.2246 66.0346 48.2914 66.0346C46.3286 66.0346 44.039 64.9024 41.8978 62.8984L41.7852 63.7388C41.7852 63.7388 43.4914 68.0078 48.2914 68.0078C53.0916 68.0078 54.6848 63.717 54.6848 63.717Z" fill="#FFCDBE"/>
<path d="M57.529 41.7197C54.9566 38.5233 52.0596 36.8545 49.2462 36.1635C48.0338 36.3969 46.7562 36.7481 45.4266 37.2515C34.1166 41.5343 35.8902 53.2275 35.8902 53.2275C37.333 60.0685 43.5482 66.3467 48.2894 66.3467C53.0306 66.3467 59.1456 60.0685 60.5884 53.2275C60.5884 53.2275 61.637 46.8245 57.529 41.7197Z" fill="#FFDCCD"/>
<path d="M58.7285 50.222C58.3125 49.8114 58.7835 48.66 59.0827 48.3568L64.8641 42.1858C65.1635 41.8826 65.9003 42.1246 66.3157 42.5346C66.7317 42.9452 66.9827 43.6784 66.6833 43.9816L60.5899 49.844C60.2905 50.1474 59.1443 50.6326 58.7285 50.222Z" fill="#F7F0E8"/>
<path d="M71.1679 39.3708C71.2833 39.2568 71.3751 39.121 71.4377 38.9712C71.5003 38.8214 71.5327 38.6608 71.5327 38.4984C71.5327 38.336 71.5005 38.1754 71.4379 38.0256C71.3753 37.8758 71.2835 37.74 71.1681 37.626C71.0525 37.5118 70.9155 37.422 70.7649 37.3612C70.6143 37.3006 70.4533 37.2704 70.2909 37.2726C70.1285 37.2748 69.9683 37.309 69.8193 37.3736C69.6705 37.4382 69.5357 37.5316 69.4233 37.6488C68.5881 38.4724 66.4741 40.4846 65.5781 40.491L68.3755 43.2524C68.3697 42.3574 70.3551 40.2166 71.1679 39.3708Z" fill="#DCAF26"/>
<path d="M56.9993 54.4068C57.5427 53.8244 57.7787 52.4122 57.8747 51.604C57.8831 51.5334 57.8751 51.462 57.8517 51.3948C57.8281 51.3278 57.7897 51.267 57.7391 51.217C57.6885 51.1672 57.6273 51.1294 57.5599 51.1068C57.4925 51.0842 57.4209 51.0772 57.3503 51.0866C56.5435 51.1928 55.1347 51.4472 54.5589 51.9978C54.2395 52.3216 54.0617 52.759 54.0645 53.2138C54.0675 53.6686 54.2509 54.1036 54.5747 54.423C54.8983 54.7426 55.3357 54.9204 55.7905 54.9174C56.2453 54.9146 56.6797 54.7304 56.9993 54.4068Z" fill="white"/>
<path d="M68.9259 43.6675L65.1577 39.9479C64.7475 39.5429 64.0867 39.5473 63.6819 39.9575L62.4279 41.2277C62.0229 41.6379 62.0273 42.2987 62.4373 42.7037L66.2055 46.4233C66.6157 46.8283 67.2765 46.8239 67.6815 46.4137L68.9353 45.1435C69.3403 44.7333 69.3361 44.0725 68.9259 43.6675Z" fill="#E3BF51"/>
<path d="M33.0168 58.2988L32.9238 58.5652C32.8716 58.7148 32.8688 58.8774 32.9154 59.0288C32.9622 59.1804 33.0562 59.313 33.1836 59.4072C33.5124 59.6374 33.7808 59.9434 33.9664 60.2992C34.152 60.655 34.2494 61.0502 34.25 61.4514V68.4986C34.25 68.7328 34.157 68.9572 33.9914 69.1228C33.826 69.2884 33.6014 69.3814 33.3672 69.3814H28.8828C28.6488 69.3814 28.4242 69.2884 28.2586 69.1228C28.093 68.9572 28 68.7328 28 68.4986V61.4514C28.0006 61.0502 28.098 60.655 28.2836 60.2992C28.4692 59.9434 28.7378 59.6374 29.0664 59.4072C29.194 59.313 29.288 59.1804 29.3348 59.0288C29.3814 58.8774 29.3784 58.7148 29.3262 58.5652L29.2334 58.2988H33.0168Z" fill="#DCAF26"/>
<path d="M32.395 61.668H29.8576C29.5586 61.668 29.3164 61.9102 29.3164 62.209V66.8914C29.3164 67.1904 29.5586 67.4326 29.8576 67.4326H32.395C32.6938 67.4326 32.936 67.1904 32.936 66.8914V62.209C32.936 61.9102 32.6938 61.668 32.395 61.668Z" fill="#FBF7E9"/>
<path d="M33.0971 58.3408C33.2051 58.3372 33.3071 58.2908 33.3809 58.212C33.4549 58.1332 33.4945 58.0282 33.4911 57.9204C33.4945 57.8124 33.4549 57.7074 33.3809 57.6286C33.3071 57.5498 33.2049 57.5036 33.0971 57.5H29.1567C29.0485 57.5034 28.9463 57.5496 28.8723 57.6284C28.7981 57.7072 28.7585 57.8122 28.7619 57.9204C28.7585 58.0284 28.7981 58.1334 28.8723 58.2122C28.9463 58.2912 29.0485 58.3374 29.1567 58.3408H33.0971Z" fill="#E3BF51"/>
</g>
</svg>
