<svg width="96" height="96" viewBox="0 0 96 96" fill="none" xmlns="http://www.w3.org/2000/svg">
<path d="M1 48C1 22.0426 22.0426 1 48 1C73.9574 1 95 22.0426 95 48C95 73.9574 73.9574 95 48 95C22.0426 95 1 73.9574 1 48Z" fill="white"/>
<path d="M1 48C1 22.0426 22.0426 1 48 1C73.9574 1 95 22.0426 95 48C95 73.9574 73.9574 95 48 95C22.0426 95 1 73.9574 1 48Z" fill="#F3F7FF"/>
<mask id="mask0_3904_17672" style="mask-type:luminance" maskUnits="userSpaceOnUse" x="16" y="16" width="64" height="64">
<path d="M80 16H16V80H80V16Z" fill="white"/>
</mask>
<g mask="url(#mask0_3904_17672)">
<path d="M80 16H16V80H80V16Z" fill="white" fill-opacity="0.01"/>
<mask id="mask1_3904_17672" style="mask-type:luminance" maskUnits="userSpaceOnUse" x="22" y="22" width="52" height="52">
<path d="M73.375 22.25H22.625V73.75H73.375V22.25Z" fill="white"/>
</mask>
<g mask="url(#mask1_3904_17672)">
<path d="M28.5762 63.7475L28.893 60.7051L26.0964 61.9527C25.8338 62.0743 25.5976 62.2625 25.4158 62.5131C24.8476 63.2963 25.0226 64.3909 25.8064 64.9585C26.5906 65.5259 27.6868 65.3511 28.255 64.5681C28.437 64.3175 28.5422 64.0347 28.5762 63.7475Z" fill="#9BD4F4"/>
<path d="M26.6416 58.346L29.3054 55.325L25.3536 54.5318C24.9792 54.462 24.5822 54.484 24.1956 54.6142C22.9882 55.021 22.3394 56.3282 22.7466 57.534C23.1538 58.7398 24.4628 59.3878 25.6702 58.981C26.0568 58.851 26.3858 58.628 26.6416 58.346Z" fill="#9BD4F4"/>
<path d="M27.4932 51.5422L30.0078 52.1524L29.2792 49.6724C29.2072 49.439 29.0762 49.2204 28.8866 49.0398C28.2946 48.4758 27.357 48.498 26.7922 49.089C26.2276 49.6802 26.2498 50.6166 26.8416 51.1806C27.0312 51.361 27.2564 51.4812 27.4932 51.5422Z" fill="#9BD4F4"/>
<path d="M28.5762 63.7475L28.893 60.7051L26.0964 61.9527C25.8338 62.0743 25.5976 62.2625 25.4158 62.5131C24.8476 63.2963 25.0226 64.3909 25.8064 64.9585C26.5906 65.5259 27.6868 65.3511 28.255 64.5681C28.437 64.3175 28.5422 64.0347 28.5762 63.7475Z" fill="#9BD4F4"/>
<path d="M26.6416 58.346L29.3054 55.325L25.3536 54.5318C24.9792 54.462 24.5822 54.484 24.1956 54.6142C22.9882 55.021 22.3394 56.3282 22.7466 57.534C23.1538 58.7398 24.4628 59.3878 25.6702 58.981C26.0568 58.851 26.3858 58.628 26.6416 58.346Z" fill="#9BD4F4"/>
<path d="M27.4932 51.5422L30.0078 52.1524L29.2792 49.6724C29.2072 49.439 29.0762 49.2204 28.8866 49.0398C28.2946 48.4758 27.357 48.498 26.7922 49.089C26.2276 49.6802 26.2498 50.6166 26.8416 51.1806C27.0312 51.361 27.2564 51.4812 27.4932 51.5422Z" fill="#9BD4F4"/>
<path d="M67.4262 63.7485L67.1094 60.7061L69.906 61.9537C70.1686 62.0753 70.4048 62.2635 70.5866 62.5141C71.1548 63.2971 70.9798 64.3918 70.196 64.9594C69.4118 65.5268 68.3158 65.3521 67.7474 64.5691C67.5656 64.3185 67.4602 64.0355 67.4262 63.7485Z" fill="#9BD4F4"/>
<path d="M69.3591 58.346L66.6953 55.325L70.6471 54.5318C71.0215 54.462 71.4185 54.484 71.8051 54.6142C73.0125 55.021 73.6613 56.3282 73.2541 57.534C72.8469 58.7398 71.5379 59.3878 70.3305 58.981C69.9439 58.851 69.6149 58.628 69.3591 58.346Z" fill="#9BD4F4"/>
<path d="M68.5068 51.5422L65.9922 52.1524L66.7206 49.6724C66.7928 49.439 66.9238 49.2204 67.1134 49.0398C67.7054 48.4758 68.643 48.498 69.2076 49.089C69.7724 49.6802 69.7502 50.6166 69.1584 51.1806C68.9688 51.361 68.7438 51.4812 68.5068 51.5422Z" fill="#9BD4F4"/>
<path d="M67.4262 63.7485L67.1094 60.7061L69.906 61.9537C70.1686 62.0753 70.4048 62.2635 70.5866 62.5141C71.1548 63.2971 70.9798 64.3918 70.196 64.9594C69.4118 65.5268 68.3158 65.3521 67.7474 64.5691C67.5656 64.3185 67.4602 64.0355 67.4262 63.7485Z" fill="#9BD4F4"/>
<path d="M69.3591 58.346L66.6953 55.325L70.6471 54.5318C71.0215 54.462 71.4185 54.484 71.8051 54.6142C73.0125 55.021 73.6613 56.3282 73.2541 57.534C72.8469 58.7398 71.5379 59.3878 70.3305 58.981C69.9439 58.851 69.6149 58.628 69.3591 58.346Z" fill="#9BD4F4"/>
<path d="M68.5068 51.5422L65.9922 52.1524L66.7206 49.6724C66.7928 49.439 66.9238 49.2204 67.1134 49.0398C67.7054 48.4758 68.643 48.498 69.2076 49.089C69.7724 49.6802 69.7502 50.6166 69.1584 51.1806C68.9688 51.361 68.7438 51.4812 68.5068 51.5422Z" fill="#9BD4F4"/>
<path d="M28.5762 63.7475L28.893 60.7051L26.0964 61.9527C25.8338 62.0743 25.5976 62.2625 25.4158 62.5131C24.8476 63.2963 25.0226 64.3909 25.8064 64.9585C26.5906 65.5259 27.6868 65.3511 28.255 64.5681C28.437 64.3175 28.5422 64.0347 28.5762 63.7475Z" fill="#9BD4F4"/>
<path d="M26.6416 58.346L29.3054 55.325L25.3536 54.5318C24.9792 54.462 24.5822 54.484 24.1956 54.6142C22.9882 55.021 22.3394 56.3282 22.7466 57.534C23.1538 58.7398 24.4628 59.3878 25.6702 58.981C26.0568 58.851 26.3858 58.628 26.6416 58.346Z" fill="#9BD4F4"/>
<path d="M27.4932 51.5422L30.0078 52.1524L29.2792 49.6724C29.2072 49.439 29.0762 49.2204 28.8866 49.0398C28.2946 48.4758 27.357 48.498 26.7922 49.089C26.2276 49.6802 26.2498 50.6166 26.8416 51.1806C27.0312 51.361 27.2564 51.4812 27.4932 51.5422Z" fill="#9BD4F4"/>
<path d="M28.5762 63.7475L28.893 60.7051L26.0964 61.9527C25.8338 62.0743 25.5976 62.2625 25.4158 62.5131C24.8476 63.2963 25.0226 64.3909 25.8064 64.9585C26.5906 65.5259 27.6868 65.3511 28.255 64.5681C28.437 64.3175 28.5422 64.0347 28.5762 63.7475Z" fill="#E3BF51"/>
<path d="M26.6416 58.346L29.3054 55.325L25.3536 54.5318C24.9792 54.462 24.5822 54.484 24.1956 54.6142C22.9882 55.021 22.3394 56.3282 22.7466 57.534C23.1538 58.7398 24.4628 59.3878 25.6702 58.981C26.0568 58.851 26.3858 58.628 26.6416 58.346Z" fill="#DCAF26"/>
<path d="M27.4932 51.5422L30.0078 52.1524L29.2792 49.6724C29.2072 49.439 29.0762 49.2204 28.8866 49.0398C28.2946 48.4758 27.357 48.498 26.7922 49.089C26.2276 49.6802 26.2498 50.6166 26.8416 51.1806C27.0312 51.361 27.2564 51.4812 27.4932 51.5422Z" fill="#E3BF51"/>
<path d="M67.4262 63.7485L67.1094 60.7061L69.906 61.9537C70.1686 62.0753 70.4048 62.2635 70.5866 62.5141C71.1548 63.2971 70.9798 64.3918 70.196 64.9594C69.4118 65.5268 68.3158 65.3521 67.7474 64.5691C67.5656 64.3185 67.4602 64.0355 67.4262 63.7485Z" fill="#9BD4F4"/>
<path d="M69.3591 58.346L66.6953 55.325L70.6471 54.5318C71.0215 54.462 71.4185 54.484 71.8051 54.6142C73.0125 55.021 73.6613 56.3282 73.2541 57.534C72.8469 58.7398 71.5379 59.3878 70.3305 58.981C69.9439 58.851 69.6149 58.628 69.3591 58.346Z" fill="#9BD4F4"/>
<path d="M68.5068 51.5422L65.9922 52.1524L66.7206 49.6724C66.7928 49.439 66.9238 49.2204 67.1134 49.0398C67.7054 48.4758 68.643 48.498 69.2076 49.089C69.7724 49.6802 69.7502 50.6166 69.1584 51.1806C68.9688 51.361 68.7438 51.4812 68.5068 51.5422Z" fill="#9BD4F4"/>
<path d="M67.4262 63.7485L67.1094 60.7061L69.906 61.9537C70.1686 62.0753 70.4048 62.2635 70.5866 62.5141C71.1548 63.2971 70.9798 64.3918 70.196 64.9594C69.4118 65.5268 68.3158 65.3521 67.7474 64.5691C67.5656 64.3185 67.4602 64.0355 67.4262 63.7485Z" fill="#E3BF51"/>
<path d="M69.3591 58.346L66.6953 55.325L70.6471 54.5318C71.0215 54.462 71.4185 54.484 71.8051 54.6142C73.0125 55.021 73.6613 56.3282 73.2541 57.534C72.8469 58.7398 71.5379 59.3878 70.3305 58.981C69.9439 58.851 69.6149 58.628 69.3591 58.346Z" fill="#DCAF26"/>
<path d="M68.5068 51.5422L65.9922 52.1524L66.7206 49.6724C66.7928 49.439 66.9238 49.2204 67.1134 49.0398C67.7054 48.4758 68.643 48.498 69.2076 49.089C69.7724 49.6802 69.7502 50.6166 69.1584 51.1806C68.9688 51.361 68.7438 51.4812 68.5068 51.5422Z" fill="#E3BF51"/>
<path d="M25.082 73.7495H70.9206C67.9424 71.9711 55.089 69.3423 55.089 69.3423L54.2598 63.1603C52.1776 65.0765 49.9604 66.1567 48.0556 66.1567C46.1212 66.1567 43.8648 65.0423 41.7548 63.0703L40.9134 69.3423C40.9134 69.3423 28.0602 71.9711 25.082 73.7495Z" fill="#FFDCCD"/>
<path d="M50.6047 27.6802C52.6701 27.6802 54.4951 28.04 55.9647 28.718L55.7267 28.2738C54.4785 25.9772 50.7843 21.134 43.4939 23.8946C38.6151 25.742 37.2853 30.7736 36.9989 32.2194L36.9141 32.7206C38.9157 30.8142 41.4609 29.397 44.3337 28.602C46.5443 27.9902 48.6541 27.6802 50.6047 27.6802Z" fill="#1F2970"/>
<path d="M60.7234 38.0275C60.7234 38.0275 60.6302 37.8047 60.5562 37.6021C59.6574 37.1821 56.908 36.0713 52.963 36.0713C51.291 36.0713 49.6108 36.2737 47.9414 36.6747C47.9414 36.6747 48.0428 36.7567 48.3128 36.9045L48.9248 37.0575C51.9656 37.8033 54.656 39.6077 56.9226 42.4201C60.7856 47.2139 59.9088 53.2727 59.8744 53.4973C59.8532 53.5973 59.8308 53.6971 59.8074 53.7971L60.1762 53.5529C60.1762 53.5529 64.3732 50.2117 64.3732 45.7015C64.3732 41.8175 63.0614 39.6893 60.7234 38.0275Z" fill="#27338C"/>
<path d="M60.7228 38.0275C60.7228 38.0275 54.1702 34.4515 45.2346 37.8307C35.9388 41.3463 35.6122 49.9347 35.7596 52.6885C35.7654 52.7951 35.837 53.5531 35.837 53.5531C35.837 53.5531 30.9588 49.6363 31.7118 42.9603C32.6458 34.6813 38.1398 29.9975 44.25 28.3069C50.5798 26.5555 55.9168 27.3229 58.519 30.1655C62.4558 34.4663 60.7228 38.0275 60.7228 38.0275Z" fill="#27338C"/>
<path d="M54.3561 63.8757L54.2603 63.1603C52.1781 65.0765 49.9609 66.1567 48.0561 66.1567C46.1217 66.1567 43.8653 65.0423 41.7553 63.0703L41.6445 63.8971C41.6445 63.8971 43.3257 68.0985 48.0561 68.0985C52.7863 68.0985 54.3561 63.8757 54.3561 63.8757Z" fill="#FFCDBE"/>
<path d="M57.1617 42.228C54.6267 39.0824 51.7717 37.4402 48.9993 36.76C47.8047 36.9896 46.5455 37.3354 45.2353 37.8308C34.0901 42.0456 35.8379 53.5532 35.8379 53.5532C37.2597 60.2856 43.3845 66.4642 48.0565 66.4642C52.7285 66.4642 58.7545 60.2856 60.1763 53.5532C60.1763 53.5532 61.2099 47.2516 57.1617 42.228Z" fill="#FFDCCD"/>
<path d="M59.1743 27.3368C59.1743 27.3368 58.5827 28.2314 57.9033 29.9362C57.2237 31.6412 58.1951 35.1184 57.4747 38.3206C56.7541 41.523 57.5873 44.8624 57.9127 46.0988C58.9961 50.2166 61.6297 50.854 62.5067 49.99C63.3343 49.1742 67.4825 40.6872 67.3967 37.93C67.3109 35.1728 64.7415 28.7122 64.7415 28.7122C64.7415 28.7122 65.3423 23.2742 65.6091 20.104L58.1049 22.2612L59.1743 27.3368Z" fill="#FFCDBE"/>
<path d="M30.5919 27.5249C30.5919 27.5249 28.3977 34.1219 28.4705 36.8795C28.5431 39.6371 33.1719 47.8725 34.0451 48.6395C34.9701 49.4519 37.5629 48.6647 38.4079 44.4917C38.6617 43.2387 39.3017 39.8571 38.3987 36.7013C37.4955 33.5455 38.2655 30.0183 37.4891 28.3553C36.7129 26.6921 36.0709 25.8327 36.0709 25.8327L36.8471 20.7043L29.2313 18.9805C29.6801 22.1301 30.5919 27.5249 30.5919 27.5249Z" fill="#FFCDBE"/>
</g>
</g>
</svg>
