<svg width="96" height="96" viewBox="0 0 96 96" fill="none" xmlns="http://www.w3.org/2000/svg">
<path d="M1 48C1 22.0426 22.0426 1 48 1C73.9574 1 95 22.0426 95 48C95 73.9574 73.9574 95 48 95C22.0426 95 1 73.9574 1 48Z" fill="white"/>
<path d="M1 48C1 22.0426 22.0426 1 48 1C73.9574 1 95 22.0426 95 48C95 73.9574 73.9574 95 48 95C22.0426 95 1 73.9574 1 48Z" fill="#F3F7FF"/>
<mask id="mask0_3904_17736" style="mask-type:luminance" maskUnits="userSpaceOnUse" x="16" y="16" width="64" height="64">
<path d="M80 16H16V80H80V16Z" fill="white"/>
</mask>
<g mask="url(#mask0_3904_17736)">
<path d="M80 16H16V80H80V16Z" fill="white" fill-opacity="0.01"/>
<path d="M24.8438 73.75H71.36C68.3378 71.943 55.2943 69.2716 55.2943 69.2716L54.4528 62.99C52.34 64.937 50.09 66.0346 48.157 66.0346C46.194 66.0346 43.9043 64.9024 41.7631 62.8984L40.9091 69.2716C40.9091 69.2716 27.866 71.943 24.8438 73.75Z" fill="#FFDCCD"/>
<path d="M50.7407 26.9372C52.8367 26.9372 54.6885 27.3028 56.1799 27.9916L55.9383 27.5404C54.6717 25.2068 50.9229 20.2854 43.5247 23.0906C38.5739 24.9678 37.2243 30.0806 36.9339 31.5496L36.8477 32.0588C38.8789 30.1218 41.4617 28.6816 44.3769 27.8738C46.6201 27.2522 48.7613 26.9372 50.7407 26.9372Z" fill="#1F2970"/>
<path d="M61.0099 37.4515C61.0099 37.4515 60.9155 37.2253 60.8403 37.0195C59.9283 36.5927 57.1383 35.4639 53.1351 35.4639C51.4383 35.4639 49.7331 35.6695 48.0391 36.0769C48.0391 36.0769 48.1421 36.1603 48.4161 36.3107L49.0371 36.4659C52.1229 37.2239 54.8531 39.0573 57.1531 41.9151C61.0731 46.7863 60.1835 52.9427 60.1485 53.1711C60.1269 53.2725 60.1043 53.3741 60.0807 53.4757L60.4549 53.2275C60.4549 53.2275 64.7137 49.8323 64.7137 45.2495C64.7137 41.3027 63.3823 39.1401 61.0099 37.4515Z" fill="#27338C"/>
<path d="M61.012 37.4514C61.012 37.4514 54.3626 33.8178 45.295 37.2514C35.8618 40.8236 35.5302 49.5508 35.68 52.3488C35.6858 52.4572 35.7586 53.2274 35.7586 53.2274C35.7586 53.2274 30.8082 49.2474 31.5724 42.4638C32.5202 34.0514 38.0954 29.2918 44.2958 27.574C50.7192 25.7942 56.135 26.574 58.7756 29.4626C62.7708 33.8328 61.012 37.4514 61.012 37.4514Z" fill="#27338C"/>
<path d="M54.5519 63.717L54.4545 62.99C52.3417 64.937 50.0917 66.0346 48.1585 66.0346C46.1957 66.0346 43.9059 64.9024 41.7647 62.8984L41.6523 63.7388C41.6523 63.7388 43.3583 68.0078 48.1585 68.0078C52.9587 68.0078 54.5519 63.717 54.5519 63.717Z" fill="#FFCDBE"/>
<path d="M57.3961 41.7197C54.8237 38.5233 51.9267 36.8545 49.1133 36.1635C47.9009 36.3969 46.6234 36.7481 45.2938 37.2515C33.9838 41.5343 35.7574 53.2275 35.7574 53.2275C37.2002 60.0685 43.4154 66.3467 48.1566 66.3467C52.8978 66.3467 59.0128 60.0685 60.4556 53.2275C60.4556 53.2275 61.5041 46.8245 57.3961 41.7197Z" fill="#FFDCCD"/>
<path d="M67.0168 58.2988L66.9238 58.5652C66.8716 58.7148 66.8688 58.8774 66.9154 59.0288C66.9622 59.1804 67.0562 59.313 67.1836 59.4072C67.5124 59.6374 67.7808 59.9434 67.9664 60.2992C68.152 60.655 68.2494 61.0502 68.25 61.4514V68.4986C68.25 68.7328 68.157 68.9572 67.9914 69.1228C67.826 69.2884 67.6014 69.3814 67.3672 69.3814H62.8828C62.6488 69.3814 62.4242 69.2884 62.2586 69.1228C62.093 68.9572 62 68.7328 62 68.4986V61.4514C62.0006 61.0502 62.098 60.655 62.2836 60.2992C62.4692 59.9434 62.7378 59.6374 63.0664 59.4072C63.194 59.313 63.288 59.1804 63.3348 59.0288C63.3814 58.8774 63.3784 58.7148 63.3262 58.5652L63.2334 58.2988H67.0168Z" fill="#DCAF26"/>
<path d="M66.395 61.668H63.8576C63.5586 61.668 63.3164 61.9102 63.3164 62.209V66.8914C63.3164 67.1904 63.5586 67.4326 63.8576 67.4326H66.395C66.6938 67.4326 66.936 67.1904 66.936 66.8914V62.209C66.936 61.9102 66.6938 61.668 66.395 61.668Z" fill="#FBF7E9"/>
<path d="M67.0971 58.3408C67.2049 58.3372 67.3071 58.2908 67.3809 58.212C67.4549 58.1332 67.4945 58.0282 67.4911 57.9204C67.4945 57.8124 67.4549 57.7074 67.3809 57.6286C67.3071 57.5498 67.2049 57.5036 67.0971 57.5H63.1567C63.0485 57.5034 62.9463 57.5496 62.8723 57.6284C62.7981 57.7072 62.7585 57.8122 62.7619 57.9204C62.7585 58.0284 62.7981 58.1334 62.8723 58.2122C62.9463 58.2912 63.0485 58.3374 63.1567 58.3408H67.0971Z" fill="#E3BF51"/>
<path d="M26.1909 34.1142L25.6937 34.793L25.1967 35.472C25.0593 35.6596 25.0999 35.9226 25.2875 36.06L27.3241 37.5514L28.0697 36.533L28.8155 35.5146L26.7789 34.0232C26.5913 33.886 26.3283 33.9266 26.1909 34.1142Z" fill="#DCAF26"/>
<path d="M26.7786 34.0228C26.591 33.8854 26.328 33.926 26.1906 34.1138L25.6934 34.7926L28.0696 36.5326L28.8152 35.5142L26.7786 34.0228Z" fill="#B08C1E"/>
<path d="M38.2512 43.9906C38.114 44.1782 38.1546 44.4412 38.3422 44.5786L40.529 46.18C40.7168 46.3174 40.9798 46.2768 41.117 46.0892C41.2544 45.9016 41.2138 45.6386 41.0262 45.5012L38.8394 43.8998C38.6516 43.7624 38.3888 43.803 38.2512 43.9906Z" fill="#FBF7E9"/>
<path d="M41.0287 45.5001L38.8419 43.8987C38.6541 43.7613 38.3911 43.8021 38.2539 43.9897L41.1195 46.0881C41.2569 45.9005 41.2163 45.6375 41.0287 45.5001Z" fill="#F8EFD4"/>
<path d="M35.2629 40.238L34.5173 41.2562L33.7715 42.2746L33.9533 43.4506C34.0061 43.4892 34.0671 43.515 34.1313 43.5258L35.8885 43.8246L37.1659 44.7602C37.2561 44.8262 37.3699 44.863 37.4803 44.846L38.6561 44.6642C38.7711 44.6464 38.8663 44.5744 38.9299 44.4876C38.9935 44.4008 39.0335 44.2882 39.0157 44.1732L38.8339 42.9974C38.8169 42.887 38.7475 42.7896 38.6573 42.7236L37.3797 41.788L36.5645 40.2032C36.5347 40.1452 36.4917 40.0948 36.4389 40.0562L35.2629 40.238Z" fill="#E3BF51"/>
<path d="M38.8361 42.9974C38.8191 42.8872 38.7497 42.7896 38.6595 42.7236L37.3819 41.7882L36.5667 40.2032C36.5369 40.1452 36.4939 40.0948 36.4411 40.0562L35.2651 40.238L34.5195 41.2562L38.9321 44.4876C38.9957 44.4008 39.0355 44.2882 39.0179 44.1734L38.8361 42.9974Z" fill="#DCAF26"/>
<path d="M33.5006 40.5097L32.2578 42.2069L33.955 43.4497L35.1978 41.7525L36.4406 40.0553L34.7434 38.8125L33.5006 40.5097Z" fill="#DCAF26"/>
<path d="M35.195 41.7541L33.498 40.5113L34.7406 38.8145L36.4376 40.0571L35.195 41.7541Z" fill="#B08C1E"/>
<path d="M30.4901 34.654C29.9285 34.2428 29.1373 34.3652 28.7261 34.9266L27.7319 36.2844L26.7375 37.6422C26.3263 38.2036 26.4487 38.995 27.0101 39.4062L27.3495 39.6548L28.1861 39.2244L28.0285 40.1518L28.7073 40.649L29.5439 40.2186L29.3861 41.146L30.0651 41.6432L30.9017 41.2128L30.7439 42.1404L31.0833 42.389C31.6449 42.8002 32.4361 42.6778 32.8473 42.1164L33.8417 40.7586L34.8359 39.4008C35.2471 38.8394 35.1247 38.048 34.5633 37.6368L34.2237 37.3882L33.3873 37.8186L33.5449 36.8912L32.8661 36.394L32.0295 36.8244L32.1873 35.8968L31.5083 35.3998L30.6717 35.83L30.8295 34.9026L30.4901 34.654Z" fill="#E3BF51"/>
<path d="M34.5601 37.6368L34.2205 37.3882L33.3839 37.8186L33.5417 36.891L32.8629 36.394L32.0263 36.8242L32.1839 35.8968L31.5051 35.3998L30.6685 35.83L30.8263 34.9026L30.4867 34.654C29.9253 34.2428 29.1341 34.3652 28.7227 34.9266L27.7285 36.2844L33.8383 40.7586L34.8327 39.4008C35.2439 38.8392 35.1215 38.048 34.5601 37.6368Z" fill="#E3BF51"/>
<path d="M28.6795 38.5458C28.4917 38.4084 28.2287 38.449 28.0915 38.6366L27.3457 39.655L28.0245 40.152L28.7703 39.1338C28.9077 38.9462 28.8671 38.6832 28.6795 38.5458Z" fill="#FFFAE5"/>
<path d="M30.1743 36.5085C30.3619 36.6459 30.6249 36.6053 30.7623 36.4177L31.5079 35.3995L30.8291 34.9023L30.0833 35.9205C29.9459 36.1081 29.9867 36.3711 30.1743 36.5085Z" fill="#F8EFD4"/>
<path d="M30.0387 39.5404C29.8511 39.403 29.5881 39.4436 29.4509 39.6312L28.7051 40.6496L29.3839 41.1466L30.1297 40.1284C30.2671 39.9408 30.2265 39.6778 30.0387 39.5404Z" fill="#FFFAE5"/>
<path d="M31.5296 37.5027C31.7172 37.6401 31.9802 37.5995 32.1176 37.4119L32.8634 36.3935L32.1844 35.8965L31.4388 36.9147C31.3014 37.1023 31.342 37.3653 31.5296 37.5027Z" fill="#F8EFD4"/>
<path d="M31.3943 40.534C31.2067 40.3966 30.9437 40.4374 30.8063 40.625L30.0605 41.6432L30.7395 42.1404L31.4851 41.122C31.6225 40.9344 31.5819 40.6714 31.3943 40.534Z" fill="#FFFAE5"/>
<path d="M32.889 38.497C33.0766 38.6344 33.3396 38.5938 33.477 38.4062L34.2226 37.3878L33.5438 36.8906L32.7982 37.909C32.6608 38.0966 32.7014 38.3596 32.889 38.497Z" fill="#F8EFD4"/>
</g>
</svg>
