<svg width="48" height="48" viewBox="0 0 48 48" fill="none" xmlns="http://www.w3.org/2000/svg">
<path d="M22 18C22 15.7909 20.2091 14 18 14C15.7909 14 14 15.7909 14 18C14 20.2091 15.7909 22 18 22C20.2091 22 22 20.2091 22 18Z" stroke="#27338C" stroke-width="2"/>
<path d="M22 30.5C22 28.2909 20.2091 26.5 18 26.5C15.7909 26.5 14 28.2909 14 30.5C14 32.7091 15.7909 34.5 18 34.5C20.2091 34.5 22 32.7091 22 30.5Z" stroke="#27338C" stroke-width="2"/>
<path d="M34.5 18C34.5 15.7909 32.7091 14 30.5 14C28.2909 14 26.5 15.7909 26.5 18C26.5 20.2091 28.2909 22 30.5 22C32.7091 22 34.5 20.2091 34.5 18Z" stroke="#27338C" stroke-width="2"/>
<path d="M34.5 30.5C34.5 28.2909 32.7091 26.5 30.5 26.5C28.2909 26.5 26.5 28.2909 26.5 30.5C26.5 32.7091 28.2909 34.5 30.5 34.5C32.7091 34.5 34.5 32.7091 34.5 30.5Z" stroke="#27338C" stroke-width="2"/>
</svg>
