<svg width="96" height="96" viewBox="0 0 96 96" fill="none" xmlns="http://www.w3.org/2000/svg">
<path d="M1 48C1 22.0426 22.0426 1 48 1C73.9574 1 95 22.0426 95 48C95 73.9574 73.9574 95 48 95C22.0426 95 1 73.9574 1 48Z" fill="white"/>
<path d="M1 48C1 22.0426 22.0426 1 48 1C73.9574 1 95 22.0426 95 48C95 73.9574 73.9574 95 48 95C22.0426 95 1 73.9574 1 48Z" fill="#F3F7FF"/>
<mask id="mask0_3904_17899" style="mask-type:luminance" maskUnits="userSpaceOnUse" x="16" y="16" width="64" height="64">
<path d="M80 16H16V80H80V16Z" fill="white"/>
</mask>
<g mask="url(#mask0_3904_17899)">
<path d="M80 16H16V80H80V16Z" fill="white" fill-opacity="0.01"/>
<mask id="mask1_3904_17899" style="mask-type:luminance" maskUnits="userSpaceOnUse" x="23" y="22" width="51" height="52">
<path d="M73.375 22.25H23.5V73.75H73.375V22.25Z" fill="white"/>
</mask>
<g mask="url(#mask1_3904_17899)">
<path d="M35.5677 36.48C32.4909 26.619 23.8415 30.3432 19.9014 33.4378L26.4723 16.1084L85.7749 38.5948L73.6109 70.6744C74.7903 59.0118 63.9223 54.4768 60.3971 53.9164C56.8719 53.356 39.4137 48.8062 35.5677 36.48Z" fill="#27338C"/>
<path d="M52.1208 71.5724C51.9124 71.2216 51.8612 70.7386 52.8152 70.4398C53.0504 70.3662 53.2608 70.2286 53.428 70.0472C53.9198 69.513 54.7412 68.2028 55.0648 65.2356C55.362 62.5102 56.0034 60.3176 56.4426 59.0564C57.7622 55.2678 58.2672 50.1348 58.0326 46.5022C57.6706 40.8934 59.5252 30.2222 59.5252 30.2222L66.0538 32.275C66.0538 32.275 67.0904 39.4 63.1106 48.4658C61.7114 51.653 61.3174 54.2376 61.3948 56.2496C61.4466 57.5928 61.8312 58.8968 62.4118 60.11C62.998 61.3348 63.633 63.568 61.2278 64.6684C60.9748 64.784 60.7246 64.9066 60.498 65.068C59.9402 65.465 59.0308 66.2844 58.7228 67.5644C57.9568 70.7476 55.8694 73.3364 52.8454 72.1556C52.5502 72.0404 52.2832 71.8456 52.1208 71.5724Z" fill="#FFCDBE"/>
<path d="M76.2552 28.6012L73.8413 35.7482C73.7143 36.1244 73.347 36.363 72.9548 36.3168C69.0392 35.9344 61.4907 31.7872 61.4907 31.7872C60.9577 37.1824 55.2143 41.2652 55.2143 41.2652C55.2143 41.2652 51.3931 43.9638 47.5669 46.2852C43.7311 48.6034 43.9565 51.1992 43.3501 53.9734C42.7305 56.7544 40.5563 56.2736 39.4111 56.466C38.2627 56.6686 37.0411 56.9896 34.7743 58.7082C33.0965 59.9884 31.0769 60.3226 30.1299 60.4176C29.7077 60.4604 29.2759 60.4338 28.8643 60.3146C27.9389 60.0524 26.8213 59.2824 30.0597 57.1018C34.6379 54.0222 31.9035 56.3094 35.4069 53.1482C38.9003 49.9836 39.5041 49.2408 39.5041 49.2408C39.5767 49.1552 44.3453 43.5386 44.0431 43.8944L46.4381 40.85L48.2525 38.5454C50.4871 35.5052 50.9269 35.741 54.6753 29.5152C55.2037 28.636 55.7323 27.7238 56.2211 26.8312C58.0669 23.4216 59.7287 22.0588 62.1265 22.6936C64.4351 23.2978 70.8614 24.8288 75.8708 27.5858C76.2228 27.7838 76.3856 28.2152 76.2552 28.6012Z" fill="#FFDCCD"/>
<g opacity="0.3">
<path d="M52.7662 35.0217C52.6096 34.9203 52.5642 34.7113 52.6648 34.5545C53.771 32.8295 55.3586 30.2763 56.6398 27.9079C58.6416 24.2081 60.186 23.0439 62.338 23.6127C65.119 24.3331 67.6608 24.9957 70.6254 26.0131C70.8014 26.0735 70.896 26.2657 70.8364 26.4421C70.7768 26.6187 70.5856 26.7127 70.4096 26.6523C67.468 25.6427 64.903 24.9745 62.17 24.2663C60.9332 23.9395 59.5344 23.9765 57.232 28.2319C55.9408 30.6185 54.3438 33.1871 53.2314 34.9217C53.1314 35.0775 52.9238 35.1235 52.7662 35.0217Z" fill="white"/>
</g>
<path d="M76.256 28.6031L73.8412 35.7525C73.7144 36.1281 73.3478 36.3639 72.9518 36.3225C69.0402 35.9377 61.4926 31.7913 61.4926 31.7913C60.9622 37.1841 55.216 41.2721 55.216 41.2721C55.216 41.2721 51.3918 43.9655 47.5634 46.2837C43.7372 48.6067 43.952 51.1987 43.3444 53.9809C42.733 56.7619 40.562 56.2717 39.412 56.4729C38.262 56.6739 37.0438 56.9915 34.7694 58.7129C33.0932 59.9865 31.0766 60.3259 30.132 60.4167C29.705 60.4551 29.277 60.4355 28.8654 60.3191C28.2862 60.1531 27.6342 59.7897 28.0168 59.0091C28.1 59.0417 28.1808 59.0695 28.2628 59.0935C28.6744 59.2099 29.1048 59.2343 29.5292 59.1911C30.474 59.1003 32.4906 58.7609 34.1668 57.4875C36.4412 55.7659 37.6592 55.4483 38.8094 55.2473C39.9594 55.0461 42.1304 55.5363 42.7418 52.7553C43.3494 49.9731 43.1346 47.3811 46.9608 45.0581C50.7892 42.7399 54.6134 40.0465 54.6134 40.0465C54.6134 40.0465 60.3596 35.9585 60.8936 30.5669C60.8936 30.5669 68.4376 34.7121 72.3492 35.0969C72.7452 35.1383 73.1118 34.9025 73.2386 34.5271L75.626 27.4585C75.7068 27.4985 75.7864 27.5423 75.8658 27.5859C76.2256 27.7833 76.3866 28.2165 76.256 28.6031Z" fill="#FFD3C5"/>
<path d="M32.8692 26.9764C32.8526 26.5422 33.164 26.166 33.5918 26.104C35.0378 25.8946 38.165 25.5242 39.3008 26.0418C41.0294 26.8294 44.6206 31.1222 45.8988 32.6946C46.1682 33.0262 46.159 33.5042 45.8774 33.8252L42.0638 38.171C41.7462 38.533 41.1968 38.5674 40.8364 38.248L35.7396 33.7294C35.459 33.4806 35.0444 33.4596 34.7406 33.6792L28.8382 37.9416C28.0928 38.48 27.054 38.3088 26.518 37.5592C25.982 36.8098 26.1516 35.7658 26.897 35.2274L32.4534 31.2146C32.8048 30.961 33.006 30.5472 32.9894 30.1126L32.8692 26.9764Z" fill="#E3BF51"/>
<path d="M32.8715 26.9774C32.8549 26.5434 33.1663 26.167 33.5941 26.105C35.0403 25.8956 38.1674 25.5252 39.3032 26.0428C39.859 26.296 40.6076 26.912 41.4096 27.6832C41.0468 27.3952 40.7151 27.173 40.4331 27.0444C39.2973 26.5268 36.1701 26.8972 34.7239 27.1066C34.2963 27.1686 33.9847 27.545 34.0013 27.979L34.1215 31.1154C34.1381 31.55 33.9368 31.9638 33.5854 32.2176L28.0289 36.2304C27.3965 36.6872 27.1787 37.5076 27.4543 38.2036C27.0907 38.1092 26.7562 37.8912 26.5198 37.5608C25.9838 36.8112 26.1536 35.7672 26.899 35.229L32.4557 31.216C32.8071 30.9624 33.0082 30.5484 32.9916 30.1138L32.8715 26.9774Z" fill="#B08C1E"/>
<path d="M34.0684 34.166L34.6446 34.6768C35.0326 35.0208 35.0698 35.6156 34.728 36.0052C34.386 36.3948 33.7944 36.4318 33.4064 36.088L32.5088 35.2922L34.0684 34.166Z" fill="#DCAF26"/>
<path d="M46.6464 35.8301L44.407 38.3821C44.272 38.5357 44.0386 38.5505 43.8856 38.4147L42.7422 37.4011L45.4702 34.2925L46.6134 35.3059C46.7666 35.4417 46.7812 35.6763 46.6464 35.8301Z" fill="#B08C1E"/>
<path d="M36.2837 30.8322C36.4203 30.9532 36.6229 30.9822 36.7919 30.8896L39.0217 29.6688C39.2377 29.5506 39.3173 29.2786 39.1995 29.0614C39.0817 28.8442 38.8111 28.764 38.5951 28.8822L36.3651 30.103C36.1491 30.2212 36.0695 30.4932 36.1873 30.7104C36.2131 30.7576 36.2459 30.7984 36.2837 30.8322Z" fill="#B08C1E"/>
<path d="M38.1782 32.5108C38.3148 32.632 38.5172 32.6608 38.6862 32.5684L40.9162 31.3476C41.1322 31.2292 41.2118 30.9572 41.094 30.74C40.976 30.523 40.7056 30.4426 40.4896 30.561L38.2596 31.7818C38.0436 31.9 37.964 32.172 38.0818 32.3892C38.1074 32.4364 38.1402 32.4772 38.1782 32.5108Z" fill="#B08C1E"/>
<path d="M22.3346 37.7107L22.461 37.8229C23.5814 38.8163 25.2372 38.9371 26.4874 38.1167L26.7626 37.9359C26.9686 37.8009 27.0264 37.5233 26.8918 37.3163C26.757 37.1089 26.481 37.0509 26.275 37.1861L25.9998 37.3667C25.084 37.9677 23.871 37.8791 23.0502 37.1515L22.9238 37.0393C22.7392 36.8757 22.4576 36.8933 22.2948 37.0787C22.1322 37.2641 22.15 37.5471 22.3346 37.7107Z" fill="#E3BF51"/>
<path d="M28.8385 37.9427C28.0929 38.4811 27.0541 38.3099 26.5181 37.5603C25.9819 36.8107 26.1517 35.7667 26.8971 35.2285L29.5841 33.2881C29.0327 34.6411 28.7723 36.2409 29.1329 37.7301L28.8385 37.9427Z" fill="#E3BF51"/>
<path d="M29.5851 33.2881C29.3019 33.9831 29.0963 34.7433 29.0113 35.5201L28.0279 36.2303C27.3955 36.6869 27.1777 37.5073 27.4533 38.2033C27.4367 38.1991 27.4199 38.1941 27.4033 38.1893C27.3961 38.1871 27.3885 38.1851 27.3813 38.1827C27.3661 38.1781 27.3511 38.1731 27.3359 38.1679C27.3273 38.1649 27.3185 38.1621 27.3099 38.1589C27.2957 38.1539 27.2813 38.1483 27.2671 38.1429C27.2579 38.1393 27.2489 38.1355 27.2397 38.1319C27.2259 38.1263 27.2123 38.1203 27.1985 38.1143C27.1891 38.1101 27.1797 38.1059 27.1703 38.1015C27.1571 38.0953 27.1439 38.0891 27.1309 38.0827C27.1213 38.0779 27.1117 38.0727 27.1021 38.0677C27.0895 38.0611 27.0767 38.0545 27.0643 38.0477C27.0541 38.0421 27.0443 38.0361 27.0343 38.0303C27.0225 38.0235 27.0105 38.0167 26.9989 38.0095C26.9785 37.9969 26.9581 37.9837 26.9381 37.9703C26.9287 37.9639 26.9195 37.9571 26.9103 37.9505C26.8985 37.9421 26.8867 37.9337 26.8751 37.9251C26.8659 37.9181 26.8567 37.9109 26.8475 37.9037C26.8363 37.8947 26.8249 37.8859 26.8139 37.8767C26.8049 37.8693 26.7961 37.8617 26.7873 37.8541C26.7761 37.8445 26.7651 37.8349 26.7543 37.8249C26.7459 37.8173 26.7373 37.8093 26.7289 37.8013C26.7181 37.7911 26.7073 37.7805 26.6965 37.7699C26.6887 37.7619 26.6807 37.7539 26.6729 37.7459C26.6619 37.7343 26.6511 37.7225 26.6403 37.7107C26.6333 37.7029 26.6261 37.6951 26.6193 37.6871C26.6075 37.6737 26.5961 37.6599 26.5847 37.6459C26.5791 37.6389 26.5733 37.6323 26.5679 37.6253C26.5511 37.6041 26.5347 37.5827 26.5189 37.5605C25.9829 36.8109 26.1525 35.7669 26.8979 35.2285L29.5851 33.2881Z" fill="#B08C1E"/>
<path d="M57.377 62.3464C57.377 62.3852 57.3776 62.424 57.3782 62.4624C57.3892 62.9978 57.4748 63.5146 57.6264 64.0026C57.803 64.5748 58.0694 65.1074 58.4086 65.585L57.8784 67.0746C57.8062 67.2788 57.9928 67.4808 58.2022 67.424L59.8372 66.9822C60.7314 67.5888 61.8112 67.9434 62.9736 67.9434C65.4884 67.9434 67.6156 66.2852 68.3216 64.0026C68.4726 63.514 68.5582 62.9972 68.5694 62.4624C68.57 62.4236 68.5705 62.3852 68.5705 62.3464C68.5705 59.2558 66.0648 56.75 62.9736 56.75C59.8828 56.75 57.377 59.2558 57.377 62.3464Z" fill="#F8F7F8"/>
<path d="M57.377 62.3464C57.377 62.3852 57.3776 62.424 57.3782 62.4624C57.3892 62.9978 57.4748 63.5146 57.6264 64.0026C57.803 64.5748 58.0694 65.1074 58.4086 65.585L57.8784 67.0746C57.8062 67.2788 57.9928 67.4808 58.2022 67.424L59.8372 66.9822C60.7314 67.5888 61.8112 67.9434 62.9736 67.9434C65.4884 67.9434 67.6156 66.2852 68.3216 64.0026C68.4726 63.514 68.5582 62.9972 68.5694 62.4624C68.57 62.4236 68.5705 62.3852 68.5705 62.3464C68.5705 59.2558 66.0648 56.75 62.9736 56.75C59.8828 56.75 57.377 59.2558 57.377 62.3464Z" fill="white"/>
<path d="M66.1778 64.0026C66.3288 63.514 66.4144 62.9972 66.4256 62.4624C66.4262 62.4236 66.4266 62.3852 66.4266 62.3464C66.4266 59.6224 64.4788 57.3524 61.9006 56.8524C62.2474 56.785 62.6066 56.75 62.9732 56.75C66.0644 56.75 68.5702 59.2558 68.5702 62.3464C68.5702 62.3852 68.5696 62.4236 68.569 62.4624C68.5578 62.9972 68.4722 63.514 68.3212 64.0026C67.6152 66.2852 65.488 67.9434 62.9732 67.9434C62.6058 67.9434 62.247 67.9078 61.8994 67.8402C63.9332 67.4466 65.5746 65.953 66.1778 64.0026Z" fill="#FBF7E9"/>
<path d="M62.552 61.3947L62.582 61.2403L62.6566 60.8267C62.8474 59.7677 63.5524 58.8839 64.5428 58.4627C64.7454 58.3763 64.9796 58.4709 65.0658 58.6737C65.152 58.8763 65.0576 59.1105 64.8548 59.1967C64.1128 59.5123 63.5844 60.1745 63.4414 60.9681L63.3666 61.3839C63.8074 61.5445 64.1228 61.9661 64.1228 62.4625C64.1228 63.0969 63.6086 63.6113 62.974 63.6113C62.3396 63.6113 61.8252 63.0969 61.8252 62.4625C61.8252 61.9773 62.1266 61.5631 62.552 61.3947Z" fill="#DCAF26"/>
<path d="M59.9336 59.3084L60.4996 58.7738C60.6534 58.6288 60.8934 58.6288 61.0472 58.7738L61.6132 59.3084C61.7734 59.4596 61.7806 59.712 61.6294 59.872C61.5092 59.9996 61.3246 60.0298 61.1736 59.9606L61.175 60.6258C61.1754 60.846 60.9974 61.0248 60.7772 61.0254C60.5572 61.0254 60.378 60.8474 60.3776 60.6274L60.3762 59.9592C60.3228 59.9842 60.265 59.997 60.2074 59.997C60.1014 59.997 59.9958 59.9552 59.9174 59.872C59.7662 59.712 59.7734 59.4596 59.9336 59.3084Z" fill="#E3BF51"/>
<path d="M65.5738 62.9233C65.621 62.6553 65.8566 62.4619 66.1288 62.4619H68.5704C68.5592 62.9967 68.4736 63.5135 68.3226 64.0021L67.3564 64.7337L65.8136 64.5925L65.1182 64.0021C65.3446 63.6873 65.5036 63.3205 65.5738 62.9233Z" fill="#E3BF51"/>
<path d="M59.8215 62.4619C60.0931 62.4619 60.3291 62.6553 60.3765 62.9233C60.4467 63.3205 60.6051 63.6873 60.8321 64.0021L60.6073 64.5927H58.5459L57.6283 64.0021C57.4767 63.5141 57.3911 62.9973 57.3799 62.4619H59.8215Z" fill="#E3BF51"/>
<path d="M68.3222 64.0021L67.3559 64.7337L65.9521 64.6053C66.0385 64.4097 66.1147 64.2087 66.1787 64.0021C66.3297 63.5135 66.4154 62.9967 66.4264 62.4619H68.5699C68.5587 62.9967 68.4732 63.5135 68.3222 64.0021Z" fill="#DCAF26"/>
<path d="M57.6289 64.002C57.8053 64.574 58.0717 65.1068 58.4109 65.5842L57.8809 67.074C57.8085 67.2782 57.9951 67.4802 58.2047 67.4234L59.8395 66.9814C60.7339 67.5882 61.8137 67.9428 62.9759 67.9428C65.4907 67.9428 67.6181 66.2844 68.3241 64.002H65.1197C64.6407 64.6682 63.8591 65.1014 62.9759 65.1014C62.0929 65.1014 61.3113 64.6682 60.8327 64.002H57.7091H57.6289Z" fill="#E3BF51"/>
<path d="M61.8984 67.8405C63.9322 67.4467 65.5736 65.9531 66.1768 64.0029H68.3204C67.6142 66.2853 65.487 67.9437 62.9722 67.9437C62.605 67.9437 62.246 67.9081 61.8984 67.8405Z" fill="#DCAF26"/>
</g>
</g>
</svg>
